<svg xmlns="http://www.w3.org/2000/svg" viewBox="0 0 400 400" width="400" height="400">
  <circle cx="200" cy="200" r="140" fill="#009900"/>
  <path fill="#FFFFFF" d="M200,105.72c-32.01,0-58.01,25.99-58.01,58.01c0,32.01,25.99,58.01,58.01,58.01
    c32.01,0,58.01-25.99,58.01-58.01C258.01,131.71,232.02,105.72,200,105.72z M200,212.62c-20.57,0-37.3-16.73-37.3-37.3
    c0-20.57,16.73-37.3,37.3-37.3c20.57,0,37.3,16.73,37.3,37.3C237.3,195.89,220.57,212.62,200,212.62z"/>
  <polygon fill="#FFFFFF" points="210.65,149.06 199.99,127.66 189.34,149.06 169.2,149.06 186.14,162.78 177.48,183.93 
    199.99,171.88 222.51,183.93 213.85,162.78 230.79,149.06"/>
</svg>
